# xmcd
#
# Track frame offsets:
#  150
#  13700
#  29566
#  58365
#  78775
#  98444
#  118208
#  139232
#  155644
#  172211
#  191415
#  210742
#  227566
#  247766
#  262891
#  282479
#  294186
#  316344
#
# Disc length: 4551 seconds
#
# Revision: 0
# Processed by: cddbd v1.5.1PL2 Copyright (c) Steve Scherf et al.
# Submitted via: Collectorz.com_Music_Collector 6.11
#
DISCID=fd11c512
DTITLE=Samson - Tomorrow And Yesterday
DYEAR=2006
DGENRE=Hard Rock
TTITLE0=Telephone
TTITLE1=Losing My Grip (Live)
TTITLE2=Vice Versa (Live)
TTITLE3=Driving With ZZ
TTITLE4=Red Skies
TTITLE5=Leaving Love (Behind)
TTITLE6=No Turning Back
TTITLE7=Tales Of The Fury
TTITLE8=Tomorrow
TTITLE9=Good To See You
TTITLE10=Can´t Live Without Your Love
TTITLE11=Look To The Future
TTITLE12=Wings Of Tomorrow
TTITLE13=Room 109
TTITLE14=It Ain´t Fair
TTITLE15=Tomorrow Or Yesterday (Live)
TTITLE16=Mr Rock And Roll (Live)
TTITLE17=Brand New Day (Live)
EXTD=
EXTT0=
EXTT1=
EXTT2=
EXTT3=
EXTT4=
EXTT5=
EXTT6=
EXTT7=
EXTT8=
EXTT9=
EXTT10=
EXTT11=
EXTT12=
EXTT13=
EXTT14=
EXTT15=
EXTT16=
EXTT17=
PLAYORDER=
